<svg width="64" height="64" viewBox="0 0 64 64" xmlns="http://www.w3.org/2000/svg">
  <rect width="64" height="64" rx="12" fill="#0F172A"/>
  <path d="M10 50 L38 50 L54 41 L25 41 Z" fill="#123B73" stroke="#60A5FA" stroke-width="1.4"/>
  <path d="M10 21 L38 21 L54 12 L25 12 Z" fill="#EAF4FF" stroke="#60A5FA" stroke-width="1.4"/>
  <path d="M10 21 L10 50 L38 50 L38 21 Z" fill="#BFDBFE" stroke="#60A5FA" stroke-width="1.4"/>
  <path d="M38 21 L54 12 L54 41 L38 50 Z" fill="#93C5FD" stroke="#60A5FA" stroke-width="1.4"/>
  <path d="M10 21 L38 21 M38 21 L54 12 M38 21 L38 50" stroke="#0F172A" stroke-width="1.1" opacity="0.55"/>
  <text x="24" y="9" text-anchor="middle" font-family="Arial, sans-serif" font-size="7" font-weight="700" fill="#E0F2FE">600</text>
  <text x="55" y="29" text-anchor="middle" font-family="Arial, sans-serif" font-size="6" font-weight="700" fill="#E0F2FE" transform="rotate(90 55 29)">300</text>
  <text x="8" y="39" text-anchor="middle" font-family="Arial, sans-serif" font-size="6" font-weight="700" fill="#E0F2FE" transform="rotate(-90 8 39)">250</text>
</svg>